<svg width="112" height="24" viewBox="0 0 112 24" fill="none" xmlns="http://www.w3.org/2000/svg">
<path d="M3.15 17L0.07 6.92H2.03L4.55 15.208L7.112 6.92H9.072L5.992 17H3.15ZM9.78305 8.39V6.71H11.687V8.39H9.78305ZM9.78305 17V9.44H11.687V17H9.78305ZM17.0896 17.21C16.315 17.21 15.6313 17.0443 15.0386 16.713C14.4506 16.377 13.9886 15.9173 13.6526 15.334C13.3213 14.746 13.1556 14.074 13.1556 13.318C13.1556 12.492 13.319 11.7733 13.6456 11.162C13.9723 10.5507 14.4226 10.077 14.9966 9.741C15.5706 9.40033 16.231 9.23 16.9776 9.23C17.771 9.23 18.4453 9.41667 19.0006 9.79C19.556 10.1633 19.9666 10.6883 20.2326 11.365C20.4986 12.0417 20.592 12.8373 20.5126 13.752H18.6296V13.052C18.6296 12.282 18.506 11.729 18.2586 11.393C18.016 11.0523 17.617 10.882 17.0616 10.882C16.413 10.882 15.9346 11.0803 15.6266 11.477C15.3233 11.869 15.1716 12.45 15.1716 13.22C15.1716 13.9247 15.3233 14.4707 15.6266 14.858C15.9346 15.2407 16.385 15.432 16.9776 15.432C17.351 15.432 17.6706 15.3503 17.9366 15.187C18.2026 15.0237 18.4056 14.788 18.5456 14.48L20.4496 15.026C20.165 15.7167 19.7146 16.2533 19.0986 16.636C18.4873 17.0187 17.8176 17.21 17.0896 17.21ZM14.5836 13.752V12.338H19.5956V13.752H14.5836ZM23.2198 17L20.9098 9.426L22.7718 9.44L24.1438 13.948L25.5368 9.44H27.1188L28.5118 13.948L29.8838 9.44H31.7458L29.4358 17H27.9798L26.3278 12.072L24.6758 17H23.2198ZM35.3948 17V6.92H39.6508C39.7488 6.92 39.8795 6.92467 40.0428 6.934C40.2108 6.93867 40.3602 6.95267 40.4908 6.976C41.0928 7.06933 41.5852 7.26767 41.9678 7.571C42.3552 7.87433 42.6398 8.257 42.8218 8.719C43.0038 9.17633 43.0948 9.68733 43.0948 10.252C43.0948 10.8167 43.0015 11.33 42.8148 11.792C42.6328 12.2493 42.3482 12.6297 41.9608 12.933C41.5782 13.2363 41.0882 13.4347 40.4908 13.528C40.3602 13.5467 40.2108 13.5607 40.0428 13.57C39.8748 13.5793 39.7442 13.584 39.6508 13.584H37.2988V17H35.3948ZM37.2988 11.806H39.5668C39.6648 11.806 39.7722 11.8013 39.8888 11.792C40.0055 11.7827 40.1128 11.764 40.2108 11.736C40.4675 11.666 40.6658 11.5493 40.8058 11.386C40.9458 11.218 41.0415 11.0337 41.0928 10.833C41.1488 10.6277 41.1768 10.434 41.1768 10.252C41.1768 10.07 41.1488 9.87867 41.0928 9.678C41.0415 9.47267 40.9458 9.28833 40.8058 9.125C40.6658 8.957 40.4675 8.838 40.2108 8.768C40.1128 8.74 40.0055 8.72133 39.8888 8.712C39.7722 8.70267 39.6648 8.698 39.5668 8.698H37.2988V11.806ZM44.2903 17V9.44H45.9703V11.288L45.7883 11.05C45.8863 10.7887 46.017 10.5507 46.1803 10.336C46.3436 10.1213 46.5443 9.944 46.7823 9.804C46.9643 9.692 47.1626 9.60567 47.3773 9.545C47.592 9.47967 47.8136 9.44 48.0423 9.426C48.271 9.40733 48.4996 9.412 48.7283 9.44V11.218C48.5183 11.1527 48.2733 11.1317 47.9933 11.155C47.718 11.1737 47.4683 11.2367 47.2443 11.344C47.0203 11.4467 46.8313 11.5843 46.6773 11.757C46.5233 11.925 46.4066 12.1257 46.3273 12.359C46.248 12.5877 46.2083 12.8467 46.2083 13.136V17H44.2903ZM53.1151 17.21C52.3545 17.21 51.6871 17.0397 51.1131 16.699C50.5391 16.3583 50.0911 15.8893 49.7691 15.292C49.4518 14.69 49.2931 13.9993 49.2931 13.22C49.2931 12.4313 49.4565 11.7383 49.7831 11.141C50.1098 10.539 50.5601 10.07 51.1341 9.734C51.7081 9.398 52.3685 9.23 53.1151 9.23C53.8758 9.23 54.5431 9.40033 55.1171 9.741C55.6958 10.0817 56.1461 10.553 56.4681 11.155C56.7901 11.7523 56.9511 12.4407 56.9511 13.22C56.9511 14.004 56.7878 14.697 56.4611 15.299C56.1391 15.8963 55.6888 16.3653 55.1101 16.706C54.5361 17.042 53.8711 17.21 53.1151 17.21ZM53.1151 15.432C53.7265 15.432 54.1815 15.2267 54.4801 14.816C54.7835 14.4007 54.9351 13.8687 54.9351 13.22C54.9351 12.548 54.7811 12.0113 54.4731 11.61C54.1698 11.2087 53.7171 11.008 53.1151 11.008C52.6998 11.008 52.3591 11.1013 52.0931 11.288C51.8271 11.4747 51.6288 11.7337 51.4981 12.065C51.3721 12.3963 51.3091 12.7813 51.3091 13.22C51.3091 13.8967 51.4608 14.4357 51.7641 14.837C52.0721 15.2337 52.5225 15.432 53.1151 15.432ZM57.1605 20.36V18.582H57.4965C57.9305 18.582 58.2268 18.484 58.3855 18.288C58.5488 18.092 58.6305 17.812 58.6305 17.448V9.44H60.5345V18.372C60.5345 18.974 60.3455 19.4547 59.9675 19.814C59.5941 20.178 59.0878 20.36 58.4485 20.36H57.1605ZM58.6305 8.39V6.71H60.5345V8.39H58.6305ZM65.7954 17.21C65.0207 17.21 64.3371 17.0443 63.7444 16.713C63.1564 16.377 62.6944 15.9173 62.3584 15.334C62.0271 14.746 61.8614 14.074 61.8614 13.318C61.8614 12.492 62.0247 11.7733 62.3514 11.162C62.6781 10.5507 63.1284 10.077 63.7024 9.741C64.2764 9.40033 64.9367 9.23 65.6834 9.23C66.4767 9.23 67.1511 9.41667 67.7064 9.79C68.2617 10.1633 68.6724 10.6883 68.9384 11.365C69.2044 12.0417 69.2977 12.8373 69.2184 13.752H67.3354V13.052C67.3354 12.282 67.2117 11.729 66.9644 11.393C66.7217 11.0523 66.3227 10.882 65.7674 10.882C65.1187 10.882 64.6404 11.0803 64.3324 11.477C64.0291 11.869 63.8774 12.45 63.8774 13.22C63.8774 13.9247 64.0291 14.4707 64.3324 14.858C64.6404 15.2407 65.0907 15.432 65.6834 15.432C66.0567 15.432 66.3764 15.3503 66.6424 15.187C66.9084 15.0237 67.1114 14.788 67.2514 14.48L69.1554 15.026C68.8707 15.7167 68.4204 16.2533 67.8044 16.636C67.1931 17.0187 66.5234 17.21 65.7954 17.21ZM63.2894 13.752V12.338H68.3014V13.752H63.2894ZM73.921 17.21C73.137 17.21 72.465 17.035 71.905 16.685C71.345 16.335 70.9157 15.859 70.617 15.257C70.3183 14.655 70.169 13.976 70.169 13.22C70.169 12.4547 70.323 11.771 70.631 11.169C70.9437 10.567 71.3823 10.0933 71.947 9.748C72.5117 9.40267 73.179 9.23 73.949 9.23C74.8403 9.23 75.587 9.45633 76.189 9.909C76.7957 10.357 77.183 10.9707 77.351 11.75L75.447 12.254C75.335 11.862 75.139 11.5563 74.859 11.337C74.5837 11.1177 74.271 11.008 73.921 11.008C73.5197 11.008 73.1907 11.106 72.934 11.302C72.6773 11.4933 72.4883 11.757 72.367 12.093C72.2457 12.4243 72.185 12.8 72.185 13.22C72.185 13.878 72.3297 14.4123 72.619 14.823C72.913 15.229 73.347 15.432 73.921 15.432C74.3503 15.432 74.677 15.334 74.901 15.138C75.125 14.942 75.293 14.662 75.405 14.298L77.351 14.704C77.1363 15.5067 76.7303 16.125 76.133 16.559C75.5357 16.993 74.7983 17.21 73.921 17.21ZM83.0771 17C82.5544 17.098 82.0411 17.14 81.5371 17.126C81.0378 17.1167 80.5898 17.0303 80.1931 16.867C79.8011 16.699 79.5024 16.4307 79.2971 16.062C79.1104 15.7167 79.0124 15.3667 79.0031 15.012C78.9938 14.6527 78.9891 14.2467 78.9891 13.794V7.34H80.8931V13.682C80.8931 13.976 80.8954 14.242 80.9001 14.48C80.9094 14.7133 80.9584 14.9 81.0471 15.04C81.2151 15.306 81.4834 15.4507 81.8521 15.474C82.2208 15.4973 82.6291 15.4787 83.0771 15.418V17ZM77.7011 10.91V9.44H83.0771V10.91H77.7011ZM87.5058 17.21C86.5538 17.21 85.7838 16.9953 85.1958 16.566C84.6125 16.132 84.2578 15.5207 84.1318 14.732L86.0778 14.438C86.1571 14.7927 86.3321 15.0703 86.6028 15.271C86.8781 15.4717 87.2258 15.572 87.6458 15.572C87.9911 15.572 88.2571 15.5067 88.4438 15.376C88.6305 15.2407 88.7238 15.054 88.7238 14.816C88.7238 14.6667 88.6865 14.5477 88.6118 14.459C88.5371 14.3657 88.3691 14.2747 88.1078 14.186C87.8511 14.0973 87.4498 13.9807 86.9038 13.836C86.2878 13.6773 85.7955 13.5 85.4268 13.304C85.0581 13.108 84.7921 12.8747 84.6288 12.604C84.4655 12.3287 84.3838 11.9973 84.3838 11.61C84.3838 11.1247 84.5075 10.7047 84.7548 10.35C85.0021 9.99067 85.3498 9.71533 85.7978 9.524C86.2505 9.328 86.7825 9.23 87.3938 9.23C87.9865 9.23 88.5115 9.321 88.9688 9.503C89.4261 9.685 89.7948 9.944 90.0748 10.28C90.3595 10.616 90.5345 11.0127 90.5998 11.47L88.6538 11.82C88.6211 11.54 88.4998 11.3183 88.2898 11.155C88.0798 10.9917 87.7951 10.896 87.4358 10.868C87.0858 10.8447 86.8035 10.8913 86.5888 11.008C86.3788 11.1247 86.2738 11.2927 86.2738 11.512C86.2738 11.6427 86.3181 11.7523 86.4068 11.841C86.5001 11.9297 86.6891 12.0207 86.9738 12.114C87.2631 12.2073 87.7018 12.3287 88.2898 12.478C88.8638 12.6273 89.3235 12.8023 89.6688 13.003C90.0188 13.199 90.2731 13.437 90.4318 13.717C90.5905 13.9923 90.6698 14.326 90.6698 14.718C90.6698 15.4927 90.3898 16.1017 89.8298 16.545C89.2698 16.9883 88.4951 17.21 87.5058 17.21Z" fill="white"/>
<path d="M102.059 15.637L106.955 9.48509L107.444 14.2545C107.483 14.6356 107.827 14.9086 108.208 14.8602C108.589 14.8118 108.865 14.4648 108.826 14.0837L108.166 7.64303C108.127 7.26187 107.788 6.99312 107.407 7.04155L100.97 7.85989C100.589 7.90832 100.313 8.25529 100.352 8.63645C100.391 9.01761 100.731 9.28636 101.111 9.23793L105.878 8.63194L100.983 14.7839C100.741 15.0868 100.787 15.5266 101.083 15.7612C101.379 15.9958 101.818 15.9399 102.059 15.637Z" fill="white"/>
</svg>
